<svg viewBox="0 0 324 333" fill="none" xmlns="http://www.w3.org/2000/svg"><path d="M218.578 27.75c41.702 0 64.922 24.697 64.922 67.016v143.329c0 43.012-23.22 67.155-64.922 67.155H105.435c-41.04 0-64.935-24.143-64.935-67.155V94.766c0-42.319 23.895-67.016 64.935-67.016h113.143zM109.08 218.392c-4.05-.416-7.965 1.527-10.125 5.134-2.16 3.469-2.16 8.048 0 11.655 2.16 3.469 6.075 5.55 10.125 4.995h105.84c5.387-.555 9.45-5.286 9.45-10.822 0-5.689-4.063-10.407-9.45-10.962H109.08zm105.84-63.283H109.08c-5.819 0-10.53 4.87-10.53 10.836s4.711 10.822 10.53 10.822h105.84c5.805 0 10.53-4.856 10.53-10.822 0-5.966-4.725-10.836-10.53-10.836zm-65.488-62.84H109.08v.138c-5.819 0-10.53 4.857-10.53 10.823s4.711 10.822 10.53 10.822h40.352c5.818 0 10.543-4.856 10.543-10.975 0-5.952-4.725-10.808-10.543-10.808z" fill="#54C6F9"/></svg>