<svg viewBox="0 0 283 283" fill="none" xmlns="http://www.w3.org/2000/svg"><path d="M141.5 0C63.48 0 0 63.48 0 141.5c0 58.21 36.49 111.219 90.772 131.896a8.888 8.888 0 009.838-2.503 8.901 8.901 0 001.748-3.122l26.531-84.723a8.85 8.85 0 00-4.157-10.383 35.699 35.699 0 01-13.561-13.04 35.704 35.704 0 01-5.046-18.125c0-19.509 15.866-35.375 35.375-35.375s35.375 15.866 35.375 35.375c0 12.894-7.128 24.833-18.607 31.183a8.811 8.811 0 00-4.157 10.383l26.531 84.723a8.888 8.888 0 008.052 6.182 8.871 8.871 0 003.534-.558C246.528 252.719 283 199.71 283 141.5 283 63.48 219.52 0 141.5 0z" fill="#54C6F9"/></svg>